<?xml version="1.0" encoding="utf-8"?>
<!-- Generator: Adobe Illustrator 22.1.0, SVG Export Plug-In . SVG Version: 6.00 Build 0)  -->
<svg version="1.1" id="Foreground" xmlns="http://www.w3.org/2000/svg" xmlns:xlink="http://www.w3.org/1999/xlink" x="0px" y="0px"
	 viewBox="0 0 126.2 70.1" style="enable-background:new 0 0 126.2 70.1;" xml:space="preserve">
<style type="text/css">
	.st0{fill-rule:evenodd;clip-rule:evenodd;fill:#17243E;}
</style>
<path class="st0" d="M106.6,2.8c0.4,0.1,2.5,0.9,3.7,1.1c0,0.2,0.1,0.6,0.2,1.3c-0.3,0.1-5.6,3-5.7,3.2c-0.1,0.4,0.7,1.4,1,2.1
	c2-0.8,2.1-1.4,3.5-1.2c0.4,0.1,2.3,0.7,3.3,0.8c0,0.4,0.3,0.7,0.5,1.4c-1.8,1-2.8,2.2-5.1,3.1c0.7,1.4,1.5,3.1,2.1,4.5
	c0.4-0.1,4.9-1.2,5.1-1.2c1,0.1,0.7,1.4,0.7,1.5c-0.2,1.6-2.2,2.3-3.6,3.2c-0.2-0.1-0.3-0.1-0.5-0.1c-0.9,0.5-0.8,0.8-0.8,1.1
	c-0.1,0.4-0.3,0.6-0.5,1c-1.7-0.8-3.1-1.7-4.4-2.3c-2.7-2.6-3.6-6.7-4.6-9.5c-0.7-2.2-1.4-6.6-1.3-7c0.1-0.4,0.3-1,0.8-1.4
	C102.4,3.9,106.2,2.8,106.6,2.8z M41.6,12c0.4,0.1,0.5,0.4,0.6,0.6c0.7,0.2,1.6,0.5,2.1,0.9c6.6,5.7,12.8,16.4,16.8,23.6
	c0.2,0.4,2.6,4.7,2.4,5.6c-0.1,0.7-1.4,1.9-1.6,2.6c-0.6,0.1-1.4,0.5-1.9,0.5c-0.4-0.1-1.2-0.7-1.6-0.8c-0.4-0.1-1.4,0.3-1.8,0.3
	c-1.8-0.3-2.5-2.3-2.4-3.2c0.1-0.4-1.7-4.2-2.4-6.2c-2.9-0.2-6.5,0.7-9.9,1.9L41.2,44c-0.1,0.4,0.1,3,0,3.4
	c-0.1,0.4-0.6,2.9-0.6,3.3c-0.5,3.3-1.9,1.8-4.7,4.5c-2.3-2-4.6-2.8-4.2-5.5c0.2-1.7,1.3-3.3,0.7-5l2.8-8.9l1.4-9.7
	c0.1-0.4,1-3.4,1.1-3.8l0.5-3.5c0.1-0.6,2.1-3.9,2.1-4c0.1-0.4-0.3-1.4-0.3-1.8C40.1,12.3,40.7,11.9,41.6,12z M43.9,20
	c1.4,1.8,3.3,4.8,4.3,7.1c-1.7,0.7-3.2,1.7-5,2.3C43.4,26,44.2,23,43.9,20z M71.4,10.1l2.2,0.3c2.5,1.1,6.6,4.7,6.7,8.3
	c0.1,2.6-0.7,4.9-0.7,5.3c-0.2,1.3-1.3,2.1-2.3,3.7c1.1,0.7,3.3,1.8,5,2.7c0.8,0.4,2,0.4,2.7,1c0.6,0.5,1.2,2.6,1.2,3
	c-0.1,0.4-0.5,1-0.8,1.7c-0.2,0-0.5-0.2-0.8-0.3c-0.2,0.3-0.1,0.8-0.2,1.2c-1.1-0.1-2.7,0-3.1-0.1c-2.8-0.4-8.1-5.1-8.2-5.2
	c-0.4-0.1-1.3-0.1-1.4,0.3c0,0.3,1.3,3.2,1.5,4c0.6,2.5,0.5,4.3,0.8,6.9c-0.2,0-0.5-0.1-0.9,0c0.1,0.1,0.3,0.5,0.2,0.8l-0.8-0.1
	c-1-1.4-2.4-0.7-3.3-2.6l0.4-0.3c-2.4-5.4-2.4-11-4-16.5c-0.3-1.2-0.9-2.4-1.2-3.7c-0.4-1.5-2.4-4.5-2.2-6.1
	c0.1-0.4,0.4-0.4,0.6-0.7C65.4,10.4,68.5,9.7,71.4,10.1z M68.8,14.8c2.9,0.4,3.5,1.4,3.2,3.6c-0.1,1,0.4,1.1,1.1,2.1
	c-0.6,0.9-2.8,2-4.1,2.5c-0.8-2.1-2.4-5.5-3-7.5C67.7,14.5,67.8,14.7,68.8,14.8z M15,1.8C14.8,2,14.8,2,14.9,2.2
	c0.4-0.1,1-0.3,1.4-0.2c0.4,0.1-0.1,0.2,0,0.3c0.1,0,0.3-0.3,0.6-0.1c-0.2,0-0.3,0.1-0.3,0.4c0.3,0,0.6-0.4,1-0.3
	c0.4,0.1,0,0.3,0.4,0.4c0.4,0.1,0.6-0.2,1-0.1c0.4,0.1-0.1,0.3,0.2,0.4c0.4,0.1-0.2-0.3,0.2-0.3c0.4,0.1,0.5,0.4,0.5,0.7
	c0.1-0.1,0.3-0.1,0.2-0.4c0.2,0.1,0.3,0.5,0.3,0.8c0.1-0.1,0.3-0.3,0.3-0.4c0.3,0.9,2,0.8,2.4,1.9c0,0,0.1-0.1,0.2-0.3
	c0.4,0.2,0.6,0.5,0.9,0.8l0.2,0.3c0,0,0.1-0.1,0.2-0.3c0.7,0.9,1.7,1.6,2.3,2.4c1.3,0.9,3.4,4.1,3.3,4.2c-0.1,0.4-0.2,0-0.3,0.1
	c0,0.1,0.1,0.3,0.2,0.2L30.1,13c0,0.1,0,0.1,0.3,0c0.1,0.4,0.1,0.9,0.1,1.2c0.1,0.3,0.9,0.8,0.8,1.1c-0.1,0.4-0.3-0.3-0.3,0.1
	c-0.1,0.4,0.1,0.1,0,0.5c0.1-0.4,0.2,0.1,0.5,0.1l-0.3,0.3c0,0,0.2,0,0.1,0.4c-0.1,0.4,0,0.2,0.2,0.3c-0.2,0-0.3,0.3-0.5,0.5
	c0.6,0.1-0.1-0.2,0.7,0.3c0,0.2-0.3,0.1-0.4,0.5c-0.1,0.4,0.3,0.9,0.3,1.5l-0.3-0.4c-0.3,0.1-0.4,0.2-0.5,0.5c0,0.1-0.2,0.2,0.3,0.6
	l-0.2,1c-0.2-0.2-0.5,0.1-0.5-0.3c-0.1,0.4-0.1,0-0.3,0.1c0.1,0.1,0.3,0.2,0.4,0.4l-0.2,0.8c-0.2,0-0.4-0.4-0.7-0.3
	c0.4,0.5,0.3,1,0.4,1.3c-0.7,0.6-2.5,2.4-2.5,2.5c-0.2,1-3.1,2.7-3.4,3.1c-0.3,0-0.8,0.2-1.3,0.4c0,0.1,0,0.2,0.3,0.3
	c-0.6,0.4-1.3,1-1.9,1.3c-0.3,0.1-2.4,0.2-2.5,0.9c-0.1,0.4-1.1,0.3-1.5,0.4c0,0.1,0.1,0.2,0.2,0.5c-0.4,0.3-0.8,0.5-1.2,0.8
	c-0.2,0-0.3-0.4-0.5-0.6c-0.1,0.1-0.2,0.3-0.2,0.3c-0.1-0.4-0.5-0.8-0.7-1.1c-0.1,0.2-0.3,0.6-0.5,0.5c-0.7,2.2-1.3,1.7-1.3,1.8
	c-0.1,0.4,0.9,2.8,0.8,3.2c-0.1,0.4-0.4,0.3-0.4,0.4c0.2,0.2,0.5,0.5,0.8,0.6c0,0-0.2,0-0.3,0.1c0.1,0.1,0,0.2,0.4,0.3
	c0.4,0.1,0.2,0,0.1-0.1c0.2,2,1.4,6.2,1.4,6.2l-0.4,1.9c-0.1,0.4-0.4,0.2-0.4,0.6c-0.1,0.4,0.3,0.1,0.2,0.5
	c-0.1,0.4-0.2,0.2-0.4,0.2c0.1,0.1,0.4,0.3,0.5,0.6c-0.2,0-0.3-0.2-0.4-0.1c0.2,0.3,0.6,0.8,0.6,1.1c-0.1,0.4-0.4,0.2-0.5,0.3
	c0.1,0.3,0.4,0.8,0.7,1c0,0.2-0.2,0.4-0.4,0.5c0,1.2,1.2,0.4,1,1.6c-0.1,0.4-0.2,0-0.3,0.1c0.4,0.3,0.9,0.7,1.5,1.2
	c-0.1,0.6,0,0.9,0,0.9c-0.1,0.4-0.6,0.6-0.7,1c-0.1,0.4,0,0.6-0.2,2.1c-0.1,0.7-0.1,1.4,0.2,1.9c0.2,0.2,0.2,0.4,0.7,0.4
	c0.1,0.4,0.2,0.8,0.4,1.1c-0.2,1.2,0.4,2.2,0.4,2.3c0,0.2-1.2,1.3-1.3,1.4c-0.2,0.6-0.3,1.8-1.2,2.5c-0.2,0.2-0.9,0-1.1,0.3
	c-0.9,0.9-2.8,1.2-4.2,1.4c-0.2-0.2-0.2-0.5-0.5-0.7c-0.6,0-2,0.7-2.1,0.7c-0.9-0.2-0.6-1.3-0.7-1.7c-0.1,0.1-0.3,0.2-0.4,0.4
	c-0.2-0.4-0.3-0.7-0.3-1.2c0.2,0.2,0.2,0.4,0.3,0c0-0.1-0.5-2-1.9-2.3c-0.1-1.7,0.2-3.6-0.1-5.2c0.2-0.2,0.5-0.3,0.7-0.3
	c-0.2-0.3,0.4-1.4-0.6-1.3c-0.3-1.4,0.2-3.2-0.9-4L4,54.8c0.1-0.1,0.1,0,0.1-0.4c0.1-0.4-0.8-0.8-0.7-1.2C3.5,52.9,3.7,53,3.8,53
	c-0.9-1.2-0.6-1.1-0.4-2c0.1-0.5-0.4-1.9-0.1-3.8c0-0.2-0.4-0.5-0.1-1.3c-0.3-0.7-0.4-1.8-0.3-2.2c0.1-0.4,0.3,0.1,0.4-0.3
	C3.4,43,3,42.1,2.9,41.4c-0.1-0.9,0.2-1.9,0.1-2.6c0-1.2-0.4-3.4-0.1-5c0.2-1.2-2.5-3.1-2.6-3.4c-0.2-0.3-0.4-0.7-0.3-1.1
	c0.1-0.4,1.2-1.2,1.9-1.5c-0.1-0.4,0.4-1.4,0-1.5c-0.4-0.1-0.2,0-0.3,0.3c-0.2-1.2-0.7-3.4-0.6-3.8c0.1-0.4,0.3-0.1,0.4-0.5
	c0.1-0.4,0-1.8,0.1-2.2c0.1-0.4-0.4-1.8-0.4-2.6c0-2.7,0.1-5.6,0-8.4C0.9,7,0,2.8,0,2.4c0.2-1.2,2.1-1.2,2.4-1.2
	C2.9,1.3,3.2,1,3.6,1.1c1,0.2,2.1,2.8,3,3c0.3,0.1,2.2,0,2.5-0.9c0.3,0,1.2,0.3,1.7-0.3C11,3,11,3.2,11.3,3.1c0-0.1,0-0.4-0.2-0.4
	c0.4-0.3,1.5-0.4,1.6-0.8c0.1-0.4-0.1-0.1-0.2-0.2c0.2,0,0.3,0.3,0.7,0.4c0.4,0.1,0.1-0.1,0.2-0.2c0,0.2,0,0.3,0.1,0.4
	c0.1-0.1,0.1-0.2,0.2-0.4c0.2,0,0.4-0.1,0.6,0c0,0-0.2,0-0.3,0.1l0.2,0.3C14.4,2.1,14.7,1.8,15,1.8z M14.6,9.6
	c0.3,0.1,2.4,1.6,3.1,1.7c0.4,0.1,0.6-0.2,1-0.1c0.4,0.1,1.2,2,1.6,2c0.4,0.1-0.1-0.3,0.3-0.3c0.4,0.1,1.2,1.4,1.8,2.3
	c0.3,0.4,0,1.1,0.1,1.6c0,0.1-0.7,0.8,0.2,1.1c-0.4,0.5-0.6,0.6-1,1.4c-1.2,2.5-5.7,5.1-8.8,5.3c-0.5-0.7-0.8-2.8-0.5-3.3
	c-0.1-0.1-0.4,0-0.7-0.3c0,0,0.2,0,0.3-0.1c-1.4-1-0.8-2.3-1.6-3.9c0-0.2,0.2-0.2,0.4-0.3c-0.1-0.4-0.6-0.8-0.6-1.2
	c0.1-0.4,0.4-0.2,0.4-0.4c0-0.2-0.2-0.4-0.5-0.5c0-0.2,0.4-0.3,0.4-0.7c0.1-0.4-0.6-0.9-0.5-1.3c0.1-0.4,0.3-0.1,0.4-0.2
	c-0.2-0.3-0.6-0.7-0.9-1c0-0.2,0.3-0.4,0.6-0.4c0-0.3-0.3-0.6-0.6-1c0.2-0.3,0.4-0.6,0.7-0.9c2.6,0.5,3.5,0.5,3.9,0.6
	C14.4,9.8,14.2,9.5,14.6,9.6z M81.7,7.1c1.8,0.3,4.8,6.8,4.9,7c0.8,2.2,1.9,5.5,3.1,7.8c0.6,1.2,0.7,2.3,2.2,4.1
	c3.7-2.8,5.9-4.9,9.1-4.5c1,0.1,1.4,1.1,2.4,1.1c-0.2,0.2-0.6,0.4-0.7,0.4c0.7,0.5,0.4-0.1,1,0.8c0.1-0.1,0.5-0.3,0.8-0.4
	c0,0.3-0.2,0.3-0.3,0.4c0.3,0.1,0.6,0,1,0.3c-0.6,0-0.9,0.1-1.4,0.1c0.4,0.2,1.1,0.3,1.5,0.6c-0.6,0.3-0.8,0.5-0.8,0.7
	c-0.1,0.4,0,0.5,0.3,0.6c-1,0.8-1.8,2-3,2.4c-1.4,0.5-2.8,1.2-4,1.7c-1.5,0.6-3.5,0.3-5.2,0.9c0,0.1,0.1,0.5,0.2,0.9
	c-0.2,0-0.5-0.2-0.9-0.3c-0.4-0.1-0.5,0.1-0.7,0.2c-0.2-0.4-0.2-1.3-0.7-1.3c-0.4-0.1,0.2,0.4-0.2,0.3c-1.6-0.2-3.4-5.1-3.5-5.6
	c-2.1-5.7-4.6-12-5.8-17.9C81.2,7.2,81.3,7,81.7,7.1z M122.5,0c2.1,0.3,1.8,6.1,1.7,6.8c-0.1,0.4-0.7,2.4-0.7,2.9
	c-0.1,0.8,3.1,5.4,2.8,7.5c-0.1,0.4-0.4,0.7-0.5,1.1c-0.1,0.4,0.3,0.6,0.2,1c-0.1,0.4-0.6,0.9-0.7,1.3c-4.3-1.8-4.8-7-5.5-10.5
	c-1-0.6-2.4-1.4-3.4-2.3c-1.1-1-4.2-4.9-4.1-5.8c0.1-0.4,0.2-0.5,0.3-0.7l0.9,0.1c1.8,0.2,5.2,3.8,6.2,4.3c0.2-0.4,0.1-1.4,0.2-1.8
	C119.8,3,121.2-0.2,122.5,0z"/>
</svg>
