<?xml version="1.0" encoding="utf-8"?>
<!-- Generator: Adobe Illustrator 22.1.0, SVG Export Plug-In . SVG Version: 6.00 Build 0)  -->
<svg version="1.1" id="Capa_1" xmlns="http://www.w3.org/2000/svg" xmlns:xlink="http://www.w3.org/1999/xlink" x="0px" y="0px"
	 viewBox="0 0 221 120.2" style="enable-background:new 0 0 221 120.2;" xml:space="preserve">
<style type="text/css">
	.st0{fill:#FFFFFF;}
</style>
<g>
	<path class="st0" d="M67.2,57.5c0,0-9.8-0.3-13.7-9.1c0,0-9.1,10.3-23.3,13.9l0.9,2.5v32.7l-2.7,2.7c0,0-10.8-6.9-11.7-17.4
		c-0.8-9.5,0.6-16.6,11.2-25.8c0,0,3.5-3.1,8.9-5v-1.1C19.7,50.9,0,66.4,0,84.4c0,17.8,13.5,28.4,31.4,28.4c0,0,11.4,0.1,19.8-4.5
		v4.4c0,0.4-0.7,0.3-0.7,0.3c-2.4,0-4.4,1.6-4.4,3.6s2,3.6,4.4,3.6s4.4-1.6,4.4-3.6v-10.1c0,0,2.4-1.8,3.2-2.4s0.2-1.9-0.8-1.6
		c-0.9,0.3-2.4,0.9-2.4,0.9V61.6C54.9,61.6,63.1,62.4,67.2,57.5 M51.1,104.4c-14.2,1.6-18-1.6-18-1.6l11.7-9.9V58.8
		c0-1.6,6.3,2.4,6.3,2.4V104.4z"/>
	<path class="st0" d="M160.5,22.7c-0.7-0.2-1.2-0.2-1.6,0.1c-1.7,1.3-3.2,2.1-4.4,2.2s-2.1,0.5-2.7,1.3l-1.2,1.1
		c-0.1,0.2-0.6,0.5-2.2,0.7c-0.3,0.2-1.2,0.7-0.8,1.2c0.5,0.7,1,1.5,1.4,2.3c0.4,1.7,0.1,3.5-1.5,5.2c-0.6,0.7-1.4,0.9-2.4,0.8
		c-0.5-0.1-1.1-0.4-1.1-1c0.1-0.6,0.3-1.1,0.9-1.5c1-1.3,1-2.4-0.1-3.4c-0.8-0.4-1.6-0.4-2.4,0c-1.6,0.7-1.8,2.1-0.8,3.4
		c0,0.4-0.1,0.9-0.3,1.5c-0.4,0.8-1.1,1-2,0.9c-1.5-0.8-2.2-2.2-2-4.6c0.7-1.1,1.5-2.1,2.3-2.9c-0.9-1.6-2.2-2.8-3.8-3.6
		c-1.6,0.8-2.9,2-3.8,3.6c0.8,0.9,1.5,1.8,1.9,2.9c0.2,1.4,0.1,2.8-1,4.1c-1,0.7-2,1.1-3,0.5c-0.7-0.7-0.7-1.5-0.3-2.4
		c0.7-1.1,0.6-2.2-0.4-3.1c-0.8-0.6-1.8-0.5-2.5,0c-1,0.8-0.9,1.8-0.1,3.1c0.1,0.5,0,1-0.1,1.3c-0.8,1.7-2,1.5-3.4,0.9
		c-2.5-2.4-2.4-4.9,0.5-7.3c0.6-0.8,0.3-1.7-0.8-1.9c-2.1-0.6-3.9-1.5-5.1-3.2c-1.2-2.5-2.8-2.5-4,0c-1.2,1.6-3.1,2.6-5.1,3.2
		c-1.1,0.2-1.4,1.1-0.9,1.8c3,2.5,3,4.9,0.6,7.4c-1.4,0.6-2.6,0.7-3.4-0.9c-0.2-0.4-0.2-0.8-0.1-1.4c0.8-1.2,0.9-2.3-0.1-3
		c-0.8-0.5-1.7-0.6-2.6,0c-1,0.8-1,2-0.3,3.1c0.3,0.8,0.3,1.6-0.3,2.3c-1.1,0.6-2,0.3-3-0.4c-1.1-1.4-1.2-2.7-1-4.1
		c0.4-1.2,1.1-2.1,1.8-3c-0.8-1.5-2.1-2.7-3.8-3.6c-1.5,0.9-2.8,2.1-3.8,3.6c0.9,0.9,1.7,1.8,2.3,3c0.3,2.3-0.4,3.8-1.9,4.5
		c-1,0.2-1.7,0-2.1-0.9c-0.1-0.5-0.2-1-0.2-1.4c1-1.3,0.7-2.7-0.8-3.4c-0.8-0.4-1.6-0.4-2.5,0c-1,1-1.1,2.1-0.1,3.4
		c0.6,0.4,0.9,0.9,0.9,1.4c0.1,0.7-0.5,1-1.1,1.1c-1,0.1-1.7-0.2-2.3-0.8c-1.7-1.7-2-3.5-1.6-5.3c0.4-0.8,0.9-1.5,1.5-2.2
		c0.4-0.5-0.5-1.1-0.9-1.2c-1.6-0.3-2.1-0.5-2.1-0.7l-1.2-1.2c-0.7-0.7-1.6-1.1-2.7-1.2c-1.2-0.1-2.8-0.9-4.5-2.2
		c-0.4-0.3-0.9-0.3-1.5-0.1c-0.5,0.5-0.6,1-0.4,1.5c6.2,5.5,8.3,12,8.8,15.3h73.1c0.5-3.3,2.6-9.7,8.7-15.2
		C161.1,23.7,161,23.2,160.5,22.7"/>
	<path class="st0" d="M75.7,21.7c1.9,0.5,3.8,1.1,5.4,2.1c1.1,0.3,2.2,0,3.2-0.6c4.4-3.5,9.4-6.4,15.4-8.2c0.9-0.3,1.4,0,1.1,0.9
		c-2.3,1.8-4,4.1-5,7.1c0,0.9,0.6,1.3,1.9,1.2c1-0.3,1.8-0.2,2.4,0.2c0.9,0.2,1.6-0.1,2.2-1.5c0.6-3.9,3-6.6,6.5-8.5
		c1.6-0.2,2.3,0.5,2.1,2c-1.3,1.4-2.3,2.9-2.7,4.5c0.1,1.5,0.9,2,2.2,1.6c0.8,0,1.4-0.7,1.9-2c1.3-2.4,4.7-2.4,6,0
		c0.5,1.3,1.1,2,1.8,2c1.4,0.4,2.2-0.1,2.3-1.6c-0.4-1.6-1.4-3.1-2.7-4.5c-0.2-1.5,0.5-2.2,2.1-2c3.5,1.9,5.9,4.6,6.5,8.5
		c0.5,1.4,1.3,1.7,2.1,1.5c0.7-0.4,1.5-0.5,2.5-0.2c1.3,0.1,1.9-0.3,1.9-1.2c-1-3-2.7-5.3-5-7.1c-0.3-0.9,0.2-1.2,1.1-0.9
		c5.9,1.8,10.9,4.7,15.4,8.2c1,0.6,2.1,0.9,3.2,0.6c1.6-1,3.4-1.6,5.4-2.1c1.2-0.2,1.6-1.1,1.3-2.5c-0.9-1.3-2.2-2.1-4-2.3
		c-0.7,0.1-1.3-0.1-1.8-0.6c-1.1-1.9-3.1-2.6-5.8-2.2c-1.3-1.5-3.1-1.8-5-1.7c-1.7-1.8-3.6-2-5.6-1.6c-2.2-1.4-4.2-1.9-5.9-1
		c-2.8-1.1-5.2-0.7-7.2,0.6c-0.7-1.5-1.7-2.6-3.3-3.2V5.3h2.6V2.7h-2.6V0h-4.4v2.7h-2.6v2.6h2.6v1.8c-1.6,0.6-2.7,1.7-3.3,3.2
		c-2.1-1.3-4.4-1.7-7.2-0.6c-1.8-0.9-3.8-0.4-5.9,1c-2-0.4-3.9-0.2-5.6,1.6c-2-0.1-3.7,0.2-5,1.7c-2.7-0.4-4.7,0.3-5.8,2.2
		c-0.5,0.5-1.1,0.7-1.8,0.6c-1.8,0.2-3.1,1-4,2.3C74.1,20.6,74.5,21.5,75.7,21.7 M115.5,8.5c1.4,0,2.5,1.4,2.5,3.2s-1.1,3.3-2.5,3.3
		s-2.6-1.5-2.6-3.3S114.1,8.5,115.5,8.5"/>
	<path class="st0" d="M78.9,51.3H152v-6.8H78.9V51.3z M143.8,46c1.1,0,2,0.9,2,2s-0.9,2-2,2s-2-0.9-2-2S142.7,46,143.8,46 M129.9,46
		c1.1,0,2,0.9,2,2s-0.9,2-2,2s-2-0.9-2-2C127.9,46.9,128.8,46,129.9,46 M115.5,46c1.1,0,2,0.9,2,2s-0.9,2-2,2s-2-0.9-2-2
		S114.4,46,115.5,46 M101.1,46c1.1,0,2,0.9,2,2s-0.9,2-2,2s-2-0.9-2-2S100,46,101.1,46 M87.1,46c1.1,0,2,0.9,2,2s-0.9,2-2,2
		s-2-0.9-2-2S86,46,87.1,46"/>
	<rect x="78.9" y="41.1" class="st0" width="73.1" height="1.8"/>
	<path class="st0" d="M85.5,72.5c0-1.2,1.6-2.5,1.6-2.5C81.3,69.4,72,65.1,72,65.1C66.7,69.5,58.4,70,58.4,70
		c-0.2,0.9,1.3,2.7,1.3,2.7v20.9c0,0-0.5,0.2-1.9,2.1c-0.5,0.6-0.7,1.2-0.7,1.2c11.7,1.3,16.4,7.3,16.4,7.3c5.2-5.8,14-7.1,14-7.1
		c-1.4-0.6-1.9-2.6-1.9-3L85.5,72.5L85.5,72.5z M76,95.7c-6.3-1.3-7.6-2.7-7.6-2.7V71.3c0-0.5,7.6,2.7,7.6,2.7V95.7z"/>
	<path class="st0" d="M143.9,72.5c0-1.2,1.6-2.5,1.6-2.5c-5.8-0.6-15.1-4.9-15.1-4.9c-5.2,4.4-13.6,4.9-13.6,4.9
		c-0.2,0.9,1.3,2.7,1.3,2.7v20.9c0,0-0.5,0.2-1.9,2.1c-0.5,0.6-0.7,1.2-0.7,1.2c11.7,1.3,16.4,7.3,16.4,7.3c5.2-5.8,14-7.1,14-7.1
		c-1.4-0.6-1.9-2.6-1.9-3V72.5H143.9z M134.5,95.7c-6.3-1.3-7.6-2.7-7.6-2.7V71.3c0-0.5,7.6,2.7,7.6,2.7V95.7z"/>
	<path class="st0" d="M211.9,96.4c-2.3-0.4-3.2-2.4-3.2-3V72v-2.3c-6.8-2.2-13.4-4.6-13.4-4.6c-6.3,3.8-13.1,4.9-13.1,4.9
		c-0.2,0.9,1.3,2.7,1.3,2.7v22c0,0-0.3,0.4-0.8,1.2c-0.3,0.3-0.7,0.9-0.8,1.1c6.8,0.8,14.2,7.3,14.2,7.3l5.4-5.8l6.1,5.8l7.3-7.3
		C214.9,96.9,214.2,96.8,211.9,96.4 M199.3,95.7c-2.8-2.2-6.8-3.7-6.8-3.7V71.2c0.3,0.4,6.8,2.7,6.8,2.7V95.7z"/>
	<path class="st0" d="M105.5,96.9c-6.1,3.5-7.8,7.3-7.8,7.3s-1.7-3.8-7.8-7.3h2.9V74.1c0-1.2-1.2-3.9-4-4.1l8-4.9c0,0,5,3,5.8,4.3
		c0,0-1,0.8,5.5-3.5l1.1-0.8c0,0,3.9,4.5,7,5.1c-0.8,2.9-3.6,6.4-11.5,2c0,0-1.9-0.4-1.9,0.8v23.8L105.5,96.9L105.5,96.9z"/>
	<path class="st0" d="M178.5,70c-3.1-1.2-9-4.9-9-4.9l-1.1,0.8c-6.5,4.3-7.9,3.6-7.9,3.6c-0.8-1.3-5.8-4.3-5.8-4.3l-7.7,4.7
		c2.8,0.2,4,2.9,4,4.1v22.8h-2.9c6.1,3.5,7.8,7.3,7.8,7.3s1.7-3.8,7.8-7.3h-2.9v-23l4.1-2.3l3.2,2.3v23h-2.9
		c6.1,3.5,7.5,7.3,7.5,7.3s1.7-3.8,7.8-7.3h-2.9V72.9C177.7,73,179.3,70.3,178.5,70"/>
	<path class="st0" d="M217.8,105.3c0,0,0.9-0.2,0.9-1.1c0-0.6-0.4-1.1-1.5-1.1h-1.7v4h0.7v-1.7h0.8c0,0,0.7,0.8,1.1,1.7h0.9
		C219.1,107.1,218.4,105.9,217.8,105.3 M217.2,104.8c-0.4,0-1,0-1,0v-1.1h1c0.3,0,0.8,0.1,0.8,0.5S217.5,104.8,217.2,104.8"/>
	<path class="st0" d="M213.4,105c0,2.1,1.7,3.8,3.8,3.8s3.8-1.7,3.8-3.8c0-2.1-1.7-3.8-3.8-3.8C215.1,101.2,213.4,102.9,213.4,105
		 M214.1,105c0-1.7,1.4-3.1,3.1-3.1c1.7,0,3.1,1.4,3.1,3.1s-1.4,3.1-3.1,3.1S214.1,106.7,214.1,105"/>
</g>
</svg>
