<?xml version="1.0" encoding="utf-8"?>
<!-- Generator: Adobe Illustrator 22.1.0, SVG Export Plug-In . SVG Version: 6.00 Build 0)  -->
<svg version="1.1" id="Layer_1" xmlns="http://www.w3.org/2000/svg" xmlns:xlink="http://www.w3.org/1999/xlink" x="0px" y="0px"
	 viewBox="0 0 160.5 111.5" style="enable-background:new 0 0 160.5 111.5;" xml:space="preserve">
<style type="text/css">
	.st0{fill:#FFFFFF;}
</style>
<g>
	<g>
		<g>
			<path class="st0" d="M70.5,103.1c0,0.2,0,0.2,0,0.4c0,0.2,0,0.3,0,0.5c0,0.1,0,0.2-0.1,0.4c-0.1,0.2-0.1,0.3-0.2,0.5
				c0,0.1-0.1,0.2-0.1,0.4c-0.1,0.1-0.1,0.2-0.1,0.3c-0.1,0.2-0.1,0.2-0.1,0.4c-0.1,0.2-0.1,0.2-0.1,0.4c-0.1,0.1-0.1,0.2-0.1,0.4
				c-0.1,0.2-0.2,0.3-0.3,0.5c-0.1,0.1-0.1,0.2-0.2,0.3c-0.1,0.2-0.2,0.2-0.3,0.4c-0.1,0.1-0.1,0.2-0.2,0.3
				c-0.2,0.2-0.2,0.2-0.4,0.4c-0.2,0.2-0.3,0.3-0.5,0.5c-0.1,0.1-0.2,0.2-0.3,0.3c-0.2,0.1-0.3,0.2-0.5,0.4
				c-0.1,0.1-0.2,0.1-0.3,0.2c-0.2,0.1-0.3,0.2-0.5,0.3c-0.1,0.1-0.2,0.1-0.3,0.2c-0.2,0.1-0.3,0.1-0.5,0.2
				c-0.1,0.1-0.2,0.1-0.4,0.1c-0.2,0-0.2,0.1-0.4,0.1c-0.2,0-0.2,0.1-0.4,0.1c-0.6,0.1-0.9,0.2-1.5,0.3c-0.1,0-0.2,0-0.4,0
				c-0.2,0-0.3,0-0.5,0.1c-0.2,0-0.2,0-0.4,0c-0.3,0-0.5,0-0.8,0c-0.2,0-0.4,0-0.6,0c-0.2,0-0.2,0-0.4,0c-0.3,0-0.5,0-0.8,0.1
				c-0.2,0-0.4,0-0.6,0c-0.2,0-0.2,0-0.4,0c-0.1,0-0.2,0-0.4,0c-0.6,0-1.1,0-1.7,0c-0.1,0-0.2,0-0.4,0c-0.4,0-0.6-0.1-1-0.1
				c-0.1,0-0.1-0.1-0.2-0.1c0,0-0.1-0.1-0.1-0.1c0-0.1,0-0.1,0-0.2c0-0.1,0-0.2,0-0.4c0-0.1,0-0.1,0-0.2c0-0.3,0-0.4,0-0.7
				c0-0.1,0-0.2,0-0.3c0-0.2,0-0.3,0-0.5c0-0.1,0-0.2,0-0.3c0-0.1,0-0.2,0-0.4c0-0.1,0-0.2,0-0.4c0-0.5,0-0.7,0-1.2
				c0-0.1,0-0.2,0-0.4c0-0.5,0-0.7,0-1.2c0-0.1,0-0.2,0-0.3c0-0.2,0-0.3,0-0.5c0-0.1,0-0.2,0-0.3c0-0.2,0-0.2,0-0.4
				c0-0.1,0-0.2,0-0.4c0-0.2,0-0.4,0-0.6c0-0.2,0-0.2,0-0.4c0-0.1,0-0.1,0-0.2c0-0.2,0-0.2,0-0.4c0-0.5,0.1-0.7,0.1-1.2
				c0-0.1,0-0.2,0-0.4c0-0.5,0-0.7,0-1.2c0-0.1,0-0.2,0-0.4c0-0.5,0-0.7-0.1-1.2c0-0.4,0-0.5,0-0.9c0-0.1,0-0.2,0-0.4
				c0-0.1,0-0.2,0.1-0.3c0-0.1,0-0.2,0-0.2c0-0.1,0.1-0.1,0.1-0.1c0.1,0,0.2,0,0.3-0.1c0.2,0,0.2,0,0.4,0c0.1,0,0.2,0,0.4,0
				c0.2,0,0.2,0,0.4,0c0.7,0,1.4,0,2.1,0c0.2,0,0.2,0,0.4,0c0.5,0,0.7,0,1.2,0c0.1,0,0.1,0,0.2,0c0.2,0,0.3,0,0.4,0
				c0.4,0,0.6,0,1-0.1c0.1,0,0.2,0,0.4,0c0.2,0,0.2,0,0.4,0c0.2,0,0.4,0,0.6,0c0.3,0,0.5,0,0.8,0c0.2,0,0.2,0,0.4,0
				c0.2,0,0.4,0,0.6,0.1c0.2,0,0.2,0,0.4,0.1c0.1,0,0.2,0,0.4,0.1c0.3,0.1,0.5,0.2,0.9,0.3c0.1,0.1,0.2,0.1,0.4,0.1
				c0.1,0.1,0.2,0.1,0.4,0.2c0.1,0.1,0.2,0.1,0.3,0.2c0.3,0.2,0.5,0.3,0.8,0.5c0.1,0.1,0.2,0.1,0.3,0.2c0.1,0.1,0.2,0.1,0.3,0.2
				c0.2,0.2,0.3,0.3,0.5,0.4c0.1,0.1,0.1,0.1,0.2,0.2c0.1,0.1,0.1,0.1,0.2,0.2c0.1,0.1,0.1,0.2,0.2,0.3c0.1,0.2,0.2,0.3,0.3,0.5
				c0.1,0.1,0.1,0.2,0.1,0.3c0,0.1,0.1,0.2,0.1,0.4c0.1,0.1,0.1,0.2,0.1,0.4c0,0.1,0.1,0.2,0.1,0.4c0,0.1,0.1,0.2,0.1,0.4
				c0,0.2,0.1,0.3,0.1,0.5c0,0.1,0,0.2,0.1,0.4c0,0.2,0,0.2,0.1,0.4c0,0.1,0,0.2,0,0.4c0,0.2,0,0.3,0,0.5c0,0.1,0,0.2,0,0.4
				C70.5,102.9,70.5,103,70.5,103.1z M65.1,105.4c0.1-0.1,0.1-0.2,0.2-0.3c0.1-0.2,0.1-0.2,0.1-0.4c0-0.1,0.1-0.2,0.1-0.3
				c0-0.2,0.1-0.3,0.1-0.5c0-0.1,0-0.2,0-0.3c0-0.2,0-0.3,0-0.5c0-0.3,0-0.4,0-0.7c0-0.1,0-0.2,0-0.4c0-0.2,0-0.3-0.1-0.5
				c0-0.1-0.1-0.2-0.1-0.3c0-0.1,0-0.1,0-0.1c-0.1-0.1-0.1-0.2-0.2-0.3c-0.1-0.2-0.2-0.3-0.4-0.5c0,0-0.1-0.1-0.1-0.1
				c-0.1-0.1-0.1-0.1-0.2-0.2c-0.1-0.1-0.2-0.1-0.3-0.2c-0.1-0.1-0.2-0.1-0.3-0.2c-0.2-0.1-0.3-0.2-0.5-0.3c-0.1,0-0.2-0.1-0.3-0.1
				c-0.1,0-0.2,0-0.3-0.1c-0.2,0-0.2,0-0.4-0.1c-0.2,0-0.4,0-0.6,0c-0.2,0-0.2,0-0.4,0c-0.2,0-0.4,0-0.6,0c-0.2,0-0.3,0-0.5,0
				c-0.1,0-0.2,0-0.4,0c-0.2,0-0.3,0.1-0.5,0.1c-0.1,0-0.2,0-0.3,0.1c0,0-0.1,0.1-0.1,0.1c0,0.1,0,0.2-0.1,0.3c0,0.1,0,0.1,0,0.2
				c0,0.1,0,0.2,0,0.3c0,0.3,0,0.4,0.1,0.7c0,0.1,0,0.2,0,0.4c0,0.2,0,0.3,0,0.5c0,0.1,0,0.2,0,0.4c0,0.1,0,0.2,0,0.4
				c0,0.1,0,0.2,0,0.4c0,0.2,0,0.3,0,0.5c0,0.4,0,0.7,0,1.1c0,0.2,0,0.2,0,0.4c0,0.1,0,0.2,0,0.4c0,0.2,0,0.3,0,0.5
				c0,0.1,0,0.2,0,0.3c0,0.2,0,0.3,0,0.5c0,0.1,0,0.2,0,0.3c0,0.2,0,0.3,0.1,0.5c0,0.1,0.1,0.2,0.1,0.2c0.1,0,0.1,0.1,0.1,0.1
				c0.1,0,0.2,0,0.3,0c0.7-0.1,1.5-0.1,2.2-0.2c0.2,0,0.3,0,0.6,0c0.2,0,0.2,0,0.4-0.1c0.2-0.1,0.2-0.1,0.4-0.1
				c0.2-0.1,0.2-0.1,0.4-0.2c0.1-0.1,0.2-0.1,0.4-0.2c0.1-0.1,0.2-0.1,0.3-0.2c0.2-0.2,0.3-0.2,0.4-0.4c0.1-0.1,0.1-0.2,0.2-0.3
				C64.9,105.7,65,105.6,65.1,105.4z"/>
			<path class="st0" d="M89.2,109c-0.1,0.1-0.2,0.1-0.3,0.1c-0.6,0.1-1.1,0.1-1.7,0.2c-0.5,0.1-0.8,0.1-1.3,0.1c-0.2,0-0.2,0-0.4,0
				c-0.4,0.1-0.6,0.1-1.1,0.2c-0.1,0-0.2,0-0.3,0c-0.1,0-0.1,0-0.2-0.1c-0.1-0.1-0.1-0.1-0.2-0.2c-0.3-0.4-0.5-0.6-0.8-0.9
				c-0.1-0.1-0.1-0.2-0.2-0.2c-0.3-0.4-0.5-0.5-0.8-0.9c-0.1-0.1-0.1-0.2-0.2-0.3c-0.3-0.4-0.4-0.6-0.7-1c-0.1-0.1-0.1-0.2-0.2-0.3
				c-0.3-0.4-0.5-0.5-0.8-0.9c-0.1-0.1-0.1-0.1-0.2-0.2c-0.1,0-0.1,0-0.1-0.1c-0.1,0-0.2,0-0.3,0c-0.3,0-0.5,0-0.8,0
				c-0.1,0-0.2,0-0.3,0.1c-0.1,0.1-0.1,0.1-0.2,0.2c0,0.1,0,0.2-0.1,0.3c0,0.5,0,0.8,0,1.3c0,0.1,0,0.2,0,0.4c0,0.5,0.1,0.8,0.1,1.3
				c0,0.1,0,0.2,0,0.4c0,0.2,0,0.3,0,0.5c0,0.1,0,0.2,0,0.4c0,0.1,0,0.2,0,0.4c0,0.1,0,0.2,0,0.3c0,0-0.1,0.1-0.1,0.1
				c-0.1,0-0.2,0.1-0.3,0.1c-0.2,0-0.2,0-0.4,0c-0.5,0-0.7,0-1.2,0c-0.4,0.1-0.7,0.1-1.1,0.2c-0.2,0-0.2,0-0.4,0c-0.4,0-0.7,0-1.1,0
				c-0.1,0-0.2,0-0.3,0c-0.1,0-0.1,0-0.1-0.1c0-0.1,0-0.1,0-0.2c0-0.1,0-0.2,0-0.3c0-0.1,0-0.2,0-0.3c0-0.2,0-0.4,0-0.6
				c0-0.1,0-0.2,0-0.4c0-0.5,0.1-0.7,0.1-1.2c0-0.1,0-0.2,0-0.4c0-0.5,0-0.7-0.1-1.2c0-0.1,0-0.2,0-0.4c0-0.5,0-0.7,0-1.2
				c0-0.1,0-0.2,0-0.4c0-0.5,0-0.7,0.1-1.2c0-0.1,0-0.2,0-0.4c0-0.5,0-0.7-0.1-1.2c0-0.1,0-0.2,0-0.4c0-0.5,0-0.7,0.1-1.2
				c0-0.1,0-0.2,0-0.4c0-0.5,0-0.7,0-1.2c0-0.1,0-0.2,0-0.4c0-0.5,0-0.7,0-1.2c0-0.1,0-0.2,0-0.4c0-0.3,0-0.4,0-0.7
				c0-0.1,0-0.2,0-0.3c0-0.1,0-0.1,0-0.1c0-0.1,0-0.2,0.1-0.3c0.1-0.1,0.1-0.1,0.1-0.2c0.1,0,0.2-0.1,0.3-0.1c0.1,0,0.1,0,0.2,0
				c0.1,0,0.2,0,0.4-0.1c0.4,0,0.6,0,1.1,0c1-0.1,1.9-0.1,2.9-0.2c0.5-0.1,1.1-0.2,1.6-0.2c0.2,0,0.2,0,0.4,0c0.6,0,0.9,0,1.6-0.1
				c0.4,0,0.5-0.1,0.9-0.1c0.2,0,0.2,0,0.4,0c0.1,0,0.2,0,0.4,0c0.2,0,0.3,0,0.5,0.1c0.1,0,0.2,0,0.4,0.1c0.1,0,0.2,0.1,0.4,0.1
				c0.2,0,0.2,0.1,0.4,0.1c0.1,0,0.2,0.1,0.4,0.1c0.1,0.1,0.2,0.1,0.3,0.1c0.2,0.1,0.3,0.1,0.5,0.2c0.1,0.1,0.2,0.1,0.3,0.2
				c0.1,0.1,0.1,0.1,0.2,0.2c0.1,0.1,0.1,0.1,0.2,0.2c0.1,0.2,0.2,0.2,0.3,0.4c0.1,0.1,0.1,0.2,0.2,0.3c0.1,0.2,0.2,0.2,0.3,0.4
				c0.1,0.1,0.1,0.2,0.2,0.3c0.1,0.1,0.1,0.2,0.2,0.3c0,0.1,0.1,0.2,0.1,0.4c0,0.1,0,0.2,0.1,0.4c0,0.1,0,0.2,0,0.4
				c0,0.2,0,0.3,0,0.5c0,0.1,0,0.2,0,0.4c0,0.1,0,0.2,0,0.4c0,0.2,0,0.2,0,0.4c0,0.2,0,0.2-0.1,0.4c0,0.1-0.1,0.2-0.1,0.4
				c-0.1,0.1-0.1,0.2-0.1,0.4c-0.1,0.1-0.1,0.2-0.2,0.4c-0.1,0.1-0.1,0.2-0.2,0.4c-0.1,0.1-0.1,0.2-0.2,0.3
				c-0.1,0.1-0.1,0.2-0.2,0.3c-0.1,0.1-0.1,0.2-0.2,0.3c-0.2,0.2-0.2,0.2-0.4,0.4c-0.1,0.1-0.2,0.1-0.3,0.2
				c-0.2,0.1-0.3,0.2-0.5,0.3c-0.1,0.1-0.2,0.1-0.3,0.2c-0.1,0.1-0.2,0.1-0.3,0.2c-0.1,0-0.2,0.1-0.3,0.1c-0.1,0-0.1,0.1-0.2,0.1
				c0,0.1,0.1,0.1,0.1,0.2c0.3,0.4,0.5,0.6,0.9,1.1c0.1,0.1,0.1,0.1,0.2,0.2c0.3,0.4,0.5,0.6,0.9,1c0.1,0.1,0.1,0.2,0.2,0.2
				c0.3,0.4,0.5,0.6,0.9,1c0.1,0.1,0.1,0.1,0.2,0.2c0.3,0.3,0.4,0.4,0.7,0.7c0.1,0.1,0.1,0.1,0.2,0.2c0,0.1,0.1,0.1,0.1,0.2
				C89.3,108.8,89.3,108.9,89.2,109z M82,101c0.2-0.1,0.3-0.1,0.5-0.1c0.1-0.1,0.2-0.1,0.3-0.1c0.1-0.1,0.2-0.1,0.3-0.2
				c0.1-0.1,0.1-0.2,0.2-0.3c0.1-0.1,0.1-0.2,0.2-0.4c0-0.1,0.1-0.2,0.1-0.4c0-0.1,0-0.2,0-0.4c0-0.2,0-0.2,0-0.4c0-0.2,0-0.2,0-0.4
				c0-0.1-0.1-0.2-0.1-0.3c-0.1-0.1-0.1-0.2-0.2-0.3c-0.1-0.1-0.1-0.2-0.2-0.2c-0.1-0.1-0.2-0.1-0.3-0.2c-0.1,0-0.2-0.1-0.3-0.1
				c-0.2,0-0.3,0-0.5-0.1c-0.2,0-0.2,0-0.4,0c-0.5,0-0.7,0.1-1.2,0.1c-0.2,0-0.2,0-0.4,0c-0.5,0.1-0.7,0.1-1.2,0.2
				c-0.1,0-0.2,0-0.3,0.1c-0.1,0-0.1,0-0.2,0.1c-0.1,0.1-0.1,0.1-0.1,0.1c0,0.1,0,0.2,0,0.3c0,0.2,0,0.3,0,0.5c0,0.1,0,0.2,0,0.4
				c0,0.2,0,0.2,0.1,0.4c0,0.2,0,0.2,0,0.4c0,0.5,0,0.8,0,1.3c0,0.1,0,0.2,0,0.2c0,0.1,0,0.1,0,0.1c0.1,0,0.1,0,0.2,0.1
				c0.1,0,0.2,0,0.3,0c0.5,0,0.7,0,1.2,0c0.2,0,0.2,0,0.4,0C80.9,101.1,81.4,101.1,82,101z"/>
			<path class="st0" d="M97.2,104.3c0,0.1,0,0.2,0,0.4c0,0.5-0.1,0.7-0.1,1.2c0,0.1,0,0.2,0,0.4c0,0.5,0,0.8,0,1.3
				c0,0.1,0,0.2,0,0.3c0,0,0,0.1-0.1,0.1c-0.1,0-0.1,0.1-0.2,0.1c-0.1,0-0.2,0-0.3,0.1c-0.5,0.1-0.7,0.1-1.2,0.1
				c-0.6,0.1-0.9,0.1-1.5,0.2c-0.5,0-0.7,0-1.2,0.1c-0.1,0-0.1,0-0.1,0c0,0,0,0-0.1-0.1c0-0.1,0-0.1,0-0.2c0-0.2,0-0.3,0-0.6
				c0-0.1,0-0.2,0-0.4c0-0.1,0-0.2,0-0.3c0-0.1,0-0.2,0-0.3c0-0.5,0-0.7-0.1-1.2c0-0.1,0-0.2,0-0.4c0-0.5,0-0.7,0.1-1.2
				c0-0.1,0-0.2,0-0.4c0-0.5,0-0.7-0.1-1.2c0-0.1,0-0.2,0-0.4c0-0.5,0-0.7,0-1.2c0-0.7,0-1.3,0-2c0-0.5,0-0.8,0-1.2
				c0-0.1,0-0.2,0-0.4c0-0.5,0-0.7,0-1.2c0-0.7,0-1.3,0-2c0-0.5,0-0.7,0-1.2c0-0.1,0-0.2,0.1-0.3c0.1,0,0.1-0.1,0.1-0.1
				c0.1,0,0.1,0,0.2-0.1c0.1,0,0.1,0,0.2,0c0.1,0,0.2,0,0.4-0.1c0.2,0,0.3,0,0.6,0c0.2,0,0.2,0,0.4,0c0.4-0.1,0.7-0.1,1.1-0.2
				c0.6-0.1,0.9-0.1,1.5-0.2c0.1,0,0.2,0,0.3,0c0,0.1,0,0.1,0,0.1c0,0.1,0,0.1,0,0.2c0,0.2,0,0.4,0,0.6c0,0.1,0,0.2,0,0.4
				c0,0.7,0,1.5,0,2.2c0,0.5,0,0.7,0,1.2c0,0.1,0,0.2,0,0.4c0,0.5,0,0.8,0,1.3c0,0.1,0,0.2,0,0.4c0,0.5,0,0.7,0,1.2
				c0,0.1,0,0.2,0,0.4c0,0.5,0,0.7,0,1.2c0,0.7,0,1.3,0,2C97.1,103.6,97.2,103.8,97.2,104.3z"/>
			<path class="st0" d="M117.1,92.4c0,0.1,0,0.2,0,0.4c0,1.1,0,2.2,0,3.4c0,0.5,0,0.8,0.1,1.3c0,0.1,0,0.2,0,0.4c0,1,0,2,0,3
				c0,0.2,0,0.2,0,0.4c0,0.1,0,0.1,0,0.2c0,0.2,0,0.2,0,0.4c0,0.4,0,0.7-0.1,1.1c0,0.5,0,0.8,0,1.3c0,0.1,0,0.2,0,0.3
				c0,0.1-0.1,0.2-0.1,0.3c-0.1,0.1-0.1,0.2-0.2,0.3c-0.1,0.1-0.1,0.1-0.2,0.2c-0.1,0-0.1,0.1-0.2,0.1c-0.1,0-0.2,0-0.3,0.1
				c-0.5,0.1-0.7,0.1-1.2,0.2c-0.2,0-0.2,0-0.4,0.1c-0.2,0-0.4,0.1-0.6,0.1c-0.2,0-0.2,0-0.4,0c-0.1,0-0.2,0-0.3,0
				c-0.1,0-0.2,0-0.3-0.1c-0.1-0.1-0.2-0.1-0.3-0.2c-0.1-0.1-0.1-0.2-0.2-0.3c-0.1-0.2-0.2-0.4-0.4-0.6c-0.1-0.1-0.1-0.2-0.2-0.3
				c-0.4-0.4-0.6-0.6-0.9-1c-0.1-0.1-0.1-0.1-0.2-0.2c-0.4-0.4-0.6-0.6-0.9-1c-0.1-0.1-0.1-0.2-0.2-0.3c-0.3-0.4-0.5-0.6-0.8-1.1
				c-0.1-0.1-0.1-0.1-0.2-0.2c-0.4-0.4-0.6-0.6-0.9-1c-0.1-0.1-0.1-0.1-0.2-0.2c-0.4-0.4-0.5-0.6-0.9-1c-0.1-0.1-0.1-0.1-0.2-0.2
				c-0.1,0-0.1,0.1-0.2,0.1c0,0.1,0,0.2-0.1,0.3c0,0.5,0,0.7,0,1.1c0,0.1,0,0.2,0,0.4c0,0.5,0,0.7,0,1.1c0,0.1,0,0.2,0,0.4
				c0,0.5,0,0.8,0,1.3c0,0.1,0,0.2,0,0.4c0,0.5,0,0.8-0.1,1.3c0,0.1,0,0.2,0,0.4c0.1,0.4,0.1,0.5,0.1,0.9c0,0.1,0,0.2,0,0.4
				c0,0.1,0,0.2-0.1,0.3c-0.1,0.1-0.1,0.1-0.2,0.2c-0.1,0-0.1,0-0.2,0.1c-0.1,0-0.2,0-0.3,0.1c-0.1,0-0.1,0-0.2,0
				c-0.2,0-0.2,0-0.4,0.1c-0.4,0-0.7,0.1-1.1,0.1c-0.2,0-0.2,0-0.4,0.1c-0.4,0.1-0.6,0.1-1,0.2c-0.2,0-0.2,0-0.4,0
				c-0.1,0-0.2,0-0.4,0c-0.1,0-0.2,0-0.3,0c-0.1,0-0.1-0.1-0.2-0.1c0-0.1-0.1-0.1-0.1-0.1c0-0.1,0-0.1,0-0.2c0-0.1,0-0.1,0-0.2
				c0-0.1,0-0.2,0-0.3c0-0.3,0-0.5,0-0.8c0-0.1,0-0.2,0-0.4c0-0.5,0-0.7-0.1-1.2c0-0.1,0-0.2,0-0.4c0-0.9,0-1.9,0-2.8
				c0-0.1,0-0.2,0-0.4c0-0.5,0-0.7,0.1-1.2c0-0.1,0-0.2,0-0.4c0-0.6,0-0.9,0-1.6c0-0.5-0.1-0.7-0.1-1.2c0-0.1,0-0.2,0-0.4
				c0-0.5,0.1-0.7,0.1-1.2c0-0.1,0-0.2,0-0.4c0-0.5-0.1-0.7-0.1-1.2c0-0.1,0-0.2,0-0.4c0-0.2,0-0.3,0-0.5c0-0.1,0-0.2,0-0.3
				c0-0.1,0-0.2,0-0.3c0-0.1,0-0.2,0-0.3c0-0.1,0-0.1,0.1-0.2c0.1,0,0.1-0.1,0.1-0.1c0.1,0,0.2,0,0.3-0.1c0.3-0.1,0.4-0.1,0.7-0.1
				c0.3,0,0.4,0,0.7,0c0.6-0.1,1.2-0.2,1.8-0.2c0.1,0,0.2,0,0.3,0c0,0,0.1,0,0.1,0.1c0.1,0.1,0.1,0.1,0.1,0.2c0.4,0.4,0.6,0.5,1,0.9
				c0.1,0.1,0.1,0.1,0.2,0.2c0.4,0.4,0.5,0.6,0.9,1c0.1,0.1,0.1,0.1,0.2,0.2c0.4,0.4,0.5,0.6,0.9,1c0.1,0.1,0.1,0.1,0.2,0.2
				c0.3,0.4,0.5,0.6,0.9,1c0.1,0.1,0.1,0.1,0.2,0.2c0.4,0.4,0.5,0.6,0.9,1c0.1,0.1,0.1,0.1,0.2,0.2c0.3,0.4,0.5,0.6,0.9,1
				c0.1,0.1,0.1,0.1,0.2,0.1c0.1,0,0.1,0,0.2,0c0.1-0.1,0.1-0.1,0.2-0.1c0-0.1,0-0.2,0-0.3c-0.1-0.4-0.1-0.6-0.2-0.9
				c0-0.1,0-0.2,0-0.4c0-0.4,0-0.6,0.1-1c0-0.1,0-0.2,0-0.4c0-0.6-0.1-0.8-0.1-1.4c0-0.1,0-0.2,0-0.4c0-0.6,0.1-0.8,0.1-1.4
				c0-0.1,0-0.2,0-0.4c0-0.3,0-0.5-0.1-0.8c0-0.2,0-0.3,0-0.6c0-0.1,0-0.2,0.1-0.3c0-0.1,0.1-0.1,0.1-0.2c0.1,0,0.1-0.1,0.2-0.1
				c0.1,0,0.2,0,0.3-0.1c0.1,0,0.1,0,0.2,0c0.2,0,0.2,0,0.4-0.1c0.4,0,0.6,0,1.1-0.1c0.2,0,0.2,0,0.4,0c0.3-0.1,0.5-0.1,0.8-0.1
				c0.1,0,0.2,0,0.4,0c0.2,0,0.3,0,0.6,0c0.1,0,0.2,0,0.3,0c0.1,0,0.1,0,0.2,0c0.1,0.1,0.1,0.1,0.1,0.1c0,0.1,0,0.2,0,0.3
				c0,0.1,0,0.1,0,0.2c0,0.2,0,0.2,0,0.4c0,0.3,0,0.4,0,0.7c0,0.1,0,0.2,0,0.4C117.1,91.6,117.1,91.9,117.1,92.4z"/>
			<path class="st0" d="M136.6,102.8c0,0.1,0.1,0.1,0.1,0.2c0,0,0,0.1-0.1,0.1c0,0.1,0,0.1-0.1,0.1c-0.1,0-0.1,0.1-0.2,0.1
				c-0.1,0-0.2,0-0.3,0c-0.5,0-0.8,0-1.3,0c-0.2,0-0.2,0-0.4,0c-0.6,0-0.9,0.1-1.5,0.1c-0.2,0-0.2,0-0.4,0c-0.6,0.1-0.9,0.1-1.5,0.2
				c-0.1,0-0.2,0-0.3,0c-0.1-0.1-0.1-0.1-0.2-0.1c-0.3-0.3-0.5-0.5-0.8-0.8c-0.1-0.1-0.1-0.2-0.2-0.3c-0.3-0.4-0.4-0.6-0.7-0.9
				c-0.1-0.1-0.1-0.1-0.2-0.2c-0.4-0.3-0.6-0.5-0.9-0.8c-0.1-0.1-0.1-0.2-0.2-0.2c-0.3-0.3-0.5-0.5-0.8-0.8
				c-0.1-0.1-0.1-0.1-0.2-0.2c0-0.1-0.1-0.1-0.1-0.2c-0.1,0-0.1,0-0.2-0.1c-0.1,0-0.1,0.1-0.1,0.1c0,0.1,0,0.2,0,0.3
				c0,0.6,0,0.9,0,1.6c0,0.5,0,0.7,0,1.2c0,0.1,0,0.2,0,0.4c0,0.2,0,0.3,0,0.5c0,0.1,0,0.2,0,0.3c0,0.1,0,0.2,0,0.3
				c0,0.1,0,0.1,0,0.2c0,0-0.1,0.1-0.1,0.1c-0.1,0-0.2,0-0.3,0.1c-0.3,0-0.4,0.1-0.7,0.1c-0.3,0-0.4,0-0.7,0.1c-0.4,0-0.7,0-1.1,0
				c-0.2,0-0.2,0-0.4,0.1c-0.5,0.1-0.7,0.1-1.2,0.2c-0.1,0-0.1,0-0.2,0c0,0-0.1-0.1-0.1-0.1c0-0.1,0-0.1,0-0.2c0-0.1,0-0.2,0-0.3
				c0-0.1,0-0.2,0-0.4c0-0.2,0-0.3,0-0.6c0-0.2,0-0.2,0-0.4c0-0.5-0.1-0.7-0.1-1.2c0-0.6,0-1,0-1.6c0-0.1,0-0.2,0-0.4
				c0-0.5,0-0.8,0.1-1.3c0-0.1,0-0.2,0-0.4c0-0.6,0-1,0-1.6c0-0.5,0-0.7,0-1.2c0-0.1,0-0.2,0-0.4c0-0.5,0-0.8,0-1.3
				c0-0.1,0-0.2,0-0.4c0-0.9,0-1.9,0-2.8c0-0.1,0-0.2,0-0.4c0-0.5,0-0.7,0.1-1.2c0-0.1,0-0.2,0-0.3c0,0,0-0.1,0.1-0.1
				c0.1,0,0.1,0,0.2-0.1c0.1,0,0.2,0,0.4,0c0.3,0,0.4,0,0.7,0c0.2,0,0.2,0,0.4,0c0.4-0.1,0.7-0.1,1.1-0.2c0.2,0,0.2,0,0.4,0
				c0.4,0,0.7,0,1.1,0c0.1,0,0.2,0,0.3,0c0,0,0.1,0,0.1,0.1c0,0.1,0,0.1,0.1,0.2c0,0.1,0,0.1,0,0.2c0,0.1,0,0.2,0,0.3
				c0,0.3,0,0.5-0.1,0.8c0,0.1,0,0.2,0,0.4c0,0.5,0,0.7,0.1,1.2c0,0.1,0,0.2,0,0.4c0,0.5,0,0.7,0,1.2c0,0.1,0,0.1,0,0.2
				c0.1,0,0.1,0,0.2,0c0.1-0.1,0.2-0.1,0.3-0.2c0.3-0.4,0.4-0.6,0.7-1.1c0.4-0.5,0.9-1.1,1.3-1.6c0.3-0.4,0.4-0.6,0.7-1.1
				c0.1-0.1,0.1-0.2,0.2-0.3c0.3-0.4,0.5-0.6,0.8-1c0.1-0.1,0.1-0.1,0.2-0.2c0.1,0,0.1,0,0.2-0.1c0.4-0.1,0.7-0.1,1.1-0.2
				c0.2,0,0.2,0,0.4,0c0.6,0,0.9,0,1.5,0c0.4,0,0.5,0,0.9-0.1c0.2,0,0.2,0,0.4,0c0.4,0,0.5-0.1,0.9-0.1c0.1,0,0.2,0,0.3,0
				c0,0,0.1,0,0.1,0.1c0,0,0,0,0,0c0,0,0,0,0,0.1c-0.1,0.1-0.1,0.1-0.2,0.2c-0.4,0.4-0.5,0.6-0.9,1c-0.1,0.1-0.1,0.2-0.2,0.3
				c-0.3,0.4-0.5,0.7-0.8,1.1c-0.1,0.1-0.1,0.2-0.2,0.3c-0.4,0.4-0.6,0.6-0.9,1.1c-0.1,0.1-0.1,0.2-0.2,0.3
				c-0.4,0.4-0.5,0.6-0.9,1.1c-0.1,0.1-0.1,0.2-0.2,0.3c-0.3,0.4-0.5,0.6-0.9,1.1c-0.1,0.1-0.2,0.2-0.3,0.3
				c-0.2,0.2-0.4,0.3-0.6,0.6c-0.1,0.1-0.2,0.2-0.3,0.3c-0.1,0.1-0.1,0.1-0.1,0.1c0,0.1-0.1,0.1-0.1,0.2c0,0.1,0,0.1,0,0.1
				c0.1,0.1,0.1,0.1,0.2,0.2c0.4,0.4,0.5,0.6,0.9,1c0.1,0.1,0.2,0.2,0.3,0.2c0.4,0.4,0.6,0.5,1.1,0.9c0.1,0.1,0.1,0.1,0.2,0.3
				c0.4,0.4,0.6,0.6,0.9,1c0.1,0.1,0.1,0.2,0.2,0.3c0.4,0.4,0.6,0.6,1,1c0.1,0.1,0.1,0.2,0.2,0.3c0.4,0.4,0.6,0.6,1,0.9
				c0.1,0.1,0.1,0.2,0.2,0.3C135.9,102.2,136.1,102.4,136.6,102.8z"/>
			<path class="st0" d="M154.1,97.4c0,0.2,0,0.2,0,0.4c0,0.2,0,0.2,0,0.4c0,0.1,0,0.2-0.1,0.4c0,0.2-0.1,0.3-0.1,0.5
				c0,0.1-0.1,0.2-0.1,0.3c-0.1,0.2-0.1,0.3-0.2,0.5c-0.1,0.1-0.1,0.2-0.2,0.3c-0.1,0.2-0.2,0.2-0.3,0.4c-0.1,0.1-0.1,0.2-0.2,0.3
				c-0.1,0.1-0.2,0.2-0.3,0.3c-0.1,0.1-0.2,0.2-0.3,0.3c-0.2,0.1-0.3,0.2-0.5,0.3c-0.1,0.1-0.2,0.1-0.3,0.2
				c-0.1,0.1-0.2,0.1-0.4,0.2c-0.1,0.1-0.2,0.1-0.3,0.2c-0.2,0.1-0.3,0.1-0.6,0.2c-0.3,0.1-0.4,0.1-0.7,0.2c-0.2,0-0.2,0-0.4,0.1
				c-0.2,0-0.4,0.1-0.6,0.1c-0.1,0-0.2,0-0.4,0.1c-0.2,0-0.3,0-0.5,0.1c-0.1,0-0.2,0-0.3,0c-0.2,0-0.3,0-0.6,0
				c-0.5,0-0.7,0.1-1.2,0.1c-0.2,0-0.3,0-0.5,0c-0.1,0-0.2,0-0.3,0c-0.2,0-0.3,0-0.6,0c-0.1,0-0.2,0-0.4,0c-0.2,0-0.2,0-0.4,0
				c-0.1,0-0.2-0.1-0.4-0.1c-0.2-0.1-0.3-0.1-0.5-0.1c-0.1-0.1-0.2-0.1-0.3-0.1c-0.1-0.1-0.2-0.1-0.4-0.1c-0.1-0.1-0.2-0.1-0.3-0.1
				c-0.1-0.1-0.2-0.1-0.3-0.2c-0.3-0.2-0.5-0.3-0.8-0.5c-0.1-0.1-0.2-0.1-0.3-0.2c-0.2-0.1-0.3-0.2-0.4-0.3
				c-0.1-0.1-0.2-0.1-0.3-0.2c-0.1-0.1-0.2-0.1-0.3-0.2c-0.1-0.1-0.1-0.1-0.2-0.2c0-0.1,0-0.1,0-0.2c0-0.1,0.1-0.1,0.1-0.2
				c0,0,0.1-0.1,0.1-0.1c0.1-0.1,0.1-0.2,0.2-0.3c0.3-0.3,0.4-0.4,0.7-0.6c0.1-0.1,0.1-0.2,0.2-0.3c0.2-0.2,0.2-0.4,0.4-0.6
				c0.1-0.1,0.1-0.2,0.2-0.3c0.1-0.1,0.1-0.2,0.2-0.3c0.1-0.1,0.2-0.1,0.3-0.1c0.1,0,0.2,0,0.3,0c0.1,0.1,0.2,0.1,0.3,0.2
				c0.3,0.2,0.5,0.3,0.8,0.5c0.1,0.1,0.2,0.1,0.4,0.2c0.1,0.1,0.2,0.1,0.3,0.1c0.2,0.1,0.3,0.1,0.6,0.2c0.1,0,0.2,0.1,0.4,0.1
				c0.2,0,0.2,0.1,0.4,0.1c0.2,0,0.2,0,0.4,0.1c0.2,0,0.3,0,0.6,0c0.2,0,0.2,0,0.4,0c0.6-0.1,0.9-0.1,1.5-0.1c0.2,0,0.2,0,0.4-0.1
				c0.1,0,0.1,0,0.2-0.1c0.1-0.1,0.2-0.1,0.4-0.1c0.1-0.1,0.2-0.1,0.3-0.2c0.1-0.1,0.1-0.1,0.2-0.2c0-0.1,0.1-0.1,0.1-0.2
				c0.1-0.1,0.1-0.2,0.1-0.3c0-0.2,0-0.2,0-0.4c0-0.1,0-0.1,0-0.2c-0.1-0.1-0.1-0.2-0.2-0.3c0-0.1-0.1-0.1-0.1-0.1
				c-0.1-0.1-0.2-0.1-0.3-0.2c-0.1,0-0.1,0-0.2-0.1c-0.1-0.1-0.2-0.1-0.4-0.1c-0.2,0-0.2,0-0.4-0.1c-0.2,0-0.2,0-0.4-0.1
				c-0.8,0-1.5-0.1-2.3-0.1c-0.3,0-0.4-0.1-0.7-0.1c-0.2,0-0.2,0-0.4-0.1c-0.2-0.1-0.3-0.1-0.5-0.2c-0.1,0-0.2-0.1-0.4-0.1
				c-0.1-0.1-0.2-0.1-0.4-0.1c-0.3-0.1-0.5-0.2-0.8-0.3c-0.1-0.1-0.2-0.1-0.3-0.2c-0.1-0.1-0.2-0.1-0.4-0.2
				c-0.1-0.1-0.2-0.1-0.3-0.2c-0.2-0.1-0.2-0.2-0.4-0.3c-0.1-0.1-0.1-0.2-0.2-0.3c-0.1-0.1-0.1-0.2-0.2-0.3
				c-0.1-0.1-0.1-0.2-0.1-0.3c-0.1-0.2-0.1-0.3-0.2-0.5c0-0.1,0-0.2-0.1-0.3c0-0.2,0-0.3-0.1-0.5c0-0.3,0-0.4,0-0.7
				c0-0.1,0-0.2,0-0.4c0-0.2,0-0.3,0-0.5c0-0.1,0-0.2,0.1-0.3c0-0.1,0.1-0.2,0.1-0.3c0-0.1,0.1-0.2,0.1-0.3c0.1-0.2,0.1-0.3,0.2-0.5
				c0.1-0.1,0.1-0.2,0.2-0.3c0.1-0.1,0.1-0.2,0.2-0.3c0.1-0.1,0.1-0.2,0.2-0.3c0.2-0.1,0.2-0.2,0.4-0.4c0.1-0.1,0.2-0.1,0.3-0.2
				c0.1-0.1,0.2-0.1,0.3-0.2c0.1-0.1,0.2-0.1,0.3-0.2c0.2-0.1,0.3-0.2,0.5-0.3c0.3-0.1,0.4-0.2,0.7-0.3c0.1-0.1,0.2-0.1,0.4-0.1
				c0.2,0,0.3-0.1,0.6-0.1c0.2,0,0.2-0.1,0.4-0.1c0.3,0,0.4-0.1,0.7-0.1c0.2,0,0.3-0.1,0.5-0.1c0.2,0,0.2,0,0.4-0.1
				c0.1,0,0.2,0,0.4,0c0.2,0,0.2,0,0.4,0c0.3,0,0.4,0,0.7,0c0.1,0,0.2,0,0.4,0c0.1,0,0.1,0,0.2,0c0.2,0,0.2,0,0.4,0
				c0.3,0,0.5,0.1,0.8,0.1c0.2,0,0.2,0,0.4,0.1c0.2,0,0.2,0.1,0.4,0.1c0.2,0,0.2,0.1,0.4,0.1c0.2,0.1,0.2,0.1,0.4,0.1
				c0.1,0.1,0.2,0.1,0.4,0.2c0.1,0.1,0.2,0.1,0.4,0.1c0.2,0.1,0.3,0.1,0.5,0.2c0.1,0.1,0.2,0.1,0.3,0.2c0.1,0.1,0.2,0.1,0.3,0.2
				c0.1,0.1,0.1,0.1,0.2,0.2c0,0.1,0,0.1,0,0.2c-0.1,0.1-0.1,0.2-0.1,0.3c-0.1,0.2-0.2,0.3-0.3,0.5c-0.1,0.1-0.1,0.2-0.2,0.3
				c-0.4,0.5-0.5,0.7-0.9,1.1c-0.1,0.1-0.2,0.2-0.3,0.3c-0.1,0.1-0.2,0.1-0.3,0.2c-0.1,0-0.1,0-0.2,0.1c-0.1,0-0.1,0-0.2,0
				c-0.1,0-0.1-0.1-0.2-0.1c-0.1-0.1-0.2-0.1-0.4-0.2c-0.1-0.1-0.2-0.1-0.4-0.1c-0.1,0-0.1,0-0.2-0.1c-0.1,0-0.2-0.1-0.4-0.1
				c-0.1,0-0.1,0-0.2,0c-0.2,0-0.2,0-0.4-0.1c-0.2,0-0.3-0.1-0.6-0.1c-0.2,0-0.2,0-0.4,0c-0.2,0-0.4,0-0.6,0c-0.2,0-0.4,0-0.6,0
				c-0.2,0-0.2,0-0.4,0c-0.2,0-0.2,0.1-0.4,0.1c-0.2,0.1-0.2,0.1-0.4,0.1c-0.1,0-0.1,0-0.1,0.1c-0.1,0.1-0.2,0.1-0.3,0.2
				c0,0.1-0.1,0.1-0.1,0.1c-0.1,0.1-0.1,0.2-0.2,0.3c0,0.1,0,0.2,0,0.4c0,0.1,0,0.2,0.1,0.3c0.1,0.1,0.1,0.2,0.2,0.3
				c0.1,0.1,0.2,0.1,0.3,0.2c0.1,0,0.2,0.1,0.3,0.1c0.1,0,0.1,0,0.2,0.1c0.1,0,0.2,0,0.4,0.1c0.2,0,0.4,0,0.6,0c0.3,0,0.5,0,0.8,0
				c0.2,0,0.2,0,0.4,0.1c0.3,0.1,0.5,0.1,0.8,0.2c0.3,0.1,0.5,0.1,0.8,0.2c0.2,0,0.3,0.1,0.6,0.1c0.1,0,0.2,0.1,0.4,0.1
				c0.3,0.1,0.4,0.1,0.7,0.2c0.2,0.1,0.3,0.1,0.5,0.2c0.1,0.1,0.2,0.1,0.3,0.2c0.1,0.1,0.2,0.1,0.3,0.2c0.1,0.1,0.2,0.1,0.3,0.2
				c0.3,0.2,0.4,0.3,0.7,0.5c0.1,0.1,0.2,0.2,0.3,0.3c0.1,0.1,0.1,0.2,0.2,0.3c0.1,0.2,0.2,0.2,0.3,0.4c0.1,0.1,0.1,0.2,0.2,0.3
				c0.1,0.1,0.1,0.2,0.2,0.3c0,0.1,0.1,0.2,0.1,0.3c0,0.2,0.1,0.3,0.1,0.5c0,0.1,0,0.2,0,0.3C154,97.2,154,97.3,154.1,97.4z"/>
		</g>
		<g>
			<g>
				<path class="st0" d="M121.8,110.7c0-0.2,0.3-0.4,0.8-0.4c10.8-0.3,21.4-1.9,32.2-2.3c0.4,0,0.8,0.5,0.8,1.1l0,0
					c0,0.6-0.3,1.1-0.8,1.1c-10.7-0.1-21.4,1-32.2,0.8C122.1,111.1,121.8,110.9,121.8,110.7L121.8,110.7z"/>
			</g>
			<g>
				<path class="st0" d="M86.2,88.2c0,0.2-0.3,0.4-0.8,0.4c-10.8,0.3-21.4,1.9-32.2,2.3c-0.4,0-0.8-0.5-0.8-1.1l0,0
					c0-0.6,0.3-1.1,0.8-1.1c10.7,0.1,21.4-1,32.2-0.8C85.9,87.8,86.2,88,86.2,88.2L86.2,88.2z"/>
			</g>
		</g>
	</g>
	<g>
		<path class="st0" d="M48.8,41.8c0,0-7.1-0.2-10-6.6c0,0-6.6,7.4-17,10.1l0.7,1.8v23.7l-1.9,1.9c0,0-7.8-5-8.5-12.6
			c-0.6-6.9,0.4-12.1,8.1-18.7c0,0,2.5-2.3,6.4-3.6V37C14.3,37,0,48.2,0,61.3c0,12.9,9.8,20.6,22.8,20.6c0,0,8.2,0.1,14.4-3.3v3.2
			c0,0.3-0.5,0.2-0.5,0.2c-1.8,0-3.2,1.2-3.2,2.6c0,1.4,1.4,2.6,3.2,2.6c1.8,0,3.2-1.2,3.2-2.6v-7.3c0,0,1.7-1.3,2.3-1.8
			c0.6-0.5,0.1-1.4-0.6-1.1c-0.7,0.2-1.7,0.7-1.7,0.7V44.8C39.9,44.8,45.8,45.3,48.8,41.8 M37.1,75.8c-10.3,1.1-13.1-1.1-13.1-1.1
			l8.5-7.2V42.7c0-1.1,4.6,1.7,4.6,1.7V75.8z"/>
		<path class="st0" d="M116.6,16.5c-0.5-0.1-0.9-0.1-1.2,0.1c-1.2,0.9-2.3,1.5-3.2,1.6c-0.9,0.1-1.5,0.4-2,0.9l-0.9,0.8
			c-0.1,0.1-0.4,0.4-1.6,0.5c-0.2,0.1-0.9,0.5-0.6,0.9c0.4,0.5,0.7,1.1,1,1.7c0.3,1.2,0.1,2.6-1.1,3.8c-0.4,0.5-1,0.7-1.7,0.6
			c-0.4-0.1-0.8-0.3-0.8-0.7c0.1-0.4,0.2-0.8,0.7-1.1c0.7-0.9,0.7-1.8-0.1-2.5c-0.6-0.3-1.2-0.3-1.7,0c-1.2,0.5-1.3,1.5-0.6,2.5
			c0,0.3-0.1,0.7-0.2,1.1c-0.3,0.6-0.8,0.7-1.5,0.7c-1.1-0.6-1.6-1.6-1.5-3.4c0.5-0.8,1.1-1.5,1.7-2.1c-0.7-1.2-1.6-2-2.8-2.6
			c-1.2,0.6-2.1,1.5-2.8,2.6c0.6,0.7,1.1,1.3,1.4,2.1c0.1,1,0.1,2-0.7,3c-0.7,0.5-1.5,0.8-2.2,0.4c-0.5-0.5-0.5-1.1-0.2-1.8
			c0.5-0.8,0.4-1.6-0.3-2.3c-0.6-0.4-1.3-0.4-1.8,0c-0.7,0.6-0.7,1.3-0.1,2.3c0.1,0.4,0,0.7-0.1,0.9c-0.6,1.2-1.5,1.1-2.5,0.7
			c-1.8-1.7-1.8-3.6,0.4-5.3c0.4-0.6,0.2-1.2-0.6-1.4c-1.5-0.4-2.8-1.1-3.7-2.3c-0.9-1.8-2-1.8-2.9,0c-0.9,1.2-2.3,1.9-3.7,2.3
			c-0.8,0.1-1,0.8-0.7,1.3c2.2,1.8,2.2,3.6,0.4,5.4c-1,0.4-1.9,0.5-2.5-0.7c-0.1-0.3-0.1-0.6-0.1-1c0.6-0.9,0.7-1.7-0.1-2.2
			c-0.6-0.4-1.2-0.4-1.9,0c-0.7,0.6-0.7,1.5-0.2,2.3c0.2,0.6,0.2,1.2-0.2,1.7c-0.8,0.4-1.5,0.2-2.2-0.3c-0.8-1-0.9-2-0.7-3
			c0.3-0.9,0.8-1.5,1.3-2.2c-0.6-1.1-1.5-2-2.8-2.6c-1.1,0.7-2,1.5-2.8,2.6c0.7,0.7,1.2,1.3,1.7,2.2c0.2,1.7-0.3,2.8-1.4,3.3
			c-0.7,0.1-1.2,0-1.5-0.7c-0.1-0.4-0.1-0.7-0.1-1c0.7-0.9,0.5-2-0.6-2.5c-0.6-0.3-1.2-0.3-1.8,0c-0.7,0.7-0.8,1.5-0.1,2.5
			c0.4,0.3,0.7,0.7,0.7,1c0.1,0.5-0.4,0.7-0.8,0.8c-0.7,0.1-1.2-0.1-1.7-0.6c-1.2-1.2-1.5-2.6-1.2-3.9c0.3-0.6,0.7-1.1,1.1-1.6
			c0.3-0.4-0.4-0.8-0.7-0.9c-1.2-0.2-1.5-0.4-1.5-0.5L57.6,19c-0.5-0.5-1.2-0.8-2-0.9c-0.9-0.1-2-0.7-3.3-1.6
			c-0.3-0.2-0.7-0.2-1.1-0.1c-0.4,0.4-0.4,0.7-0.3,1.1c4.5,4,6.1,8.7,6.4,11.1h53.1c0.4-2.4,1.9-7.1,6.3-11
			C117,17.2,117,16.9,116.6,16.5"/>
		<path class="st0" d="M55,15.8c1.4,0.4,2.8,0.8,3.9,1.5c0.8,0.2,1.6,0,2.3-0.4c3.2-2.6,6.9-4.7,11.2-6c0.7-0.2,1,0,0.8,0.7
			c-1.7,1.3-2.9,3-3.7,5.2c0,0.7,0.4,1,1.4,0.9c0.7-0.2,1.3-0.1,1.8,0.1c0.7,0.1,1.2-0.1,1.6-1.1c0.4-2.8,2.2-4.8,4.7-6.2
			c1.2-0.1,1.7,0.4,1.5,1.5c-0.9,1-1.7,2.1-2,3.3c0.1,1.1,0.7,1.5,1.6,1.2c0.6,0,1-0.5,1.4-1.5c0.9-1.8,3.4-1.8,4.4,0
			c0.4,0.9,0.8,1.5,1.3,1.5c1,0.3,1.6-0.1,1.7-1.2c-0.3-1.2-1-2.3-2-3.3c-0.1-1.1,0.4-1.6,1.5-1.5c2.6,1.4,4.3,3.4,4.7,6.2
			c0.4,1,0.9,1.2,1.5,1.1c0.5-0.3,1.1-0.4,1.8-0.1c0.9,0.1,1.4-0.2,1.4-0.9c-0.7-2.2-2-3.9-3.6-5.2c-0.2-0.7,0.1-0.9,0.8-0.7
			c4.3,1.3,8,3.4,11.2,6c0.7,0.4,1.5,0.7,2.3,0.4c1.2-0.7,2.5-1.2,3.9-1.5c0.9-0.1,1.2-0.8,1-1.8c-0.7-0.9-1.6-1.5-2.9-1.7
			c-0.5,0.1-1-0.1-1.3-0.4c-0.8-1.4-2.3-1.9-4.2-1.6c-0.9-1.1-2.3-1.3-3.6-1.2c-1.2-1.3-2.6-1.5-4.1-1.2c-1.6-1-3.1-1.4-4.3-0.7
			c-2-0.8-3.8-0.5-5.3,0.4c-0.5-1.1-1.2-1.9-2.4-2.3V3.9h1.9V2h-1.9V0h-3.2v2h-1.9v1.9h1.9v1.3c-1.2,0.4-2,1.2-2.4,2.3
			c-1.5-1-3.2-1.2-5.3-0.4c-1.3-0.7-2.8-0.3-4.3,0.7c-1.5-0.3-2.8-0.1-4.1,1.2c-1.5-0.1-2.7,0.1-3.6,1.2c-2-0.3-3.4,0.2-4.2,1.6
			c-0.4,0.4-0.8,0.5-1.3,0.4c-1.3,0.1-2.3,0.7-2.9,1.7C53.8,15,54.1,15.6,55,15.8 M83.9,6.2c1,0,1.8,1,1.8,2.3
			c0,1.3-0.8,2.4-1.8,2.4c-1,0-1.9-1.1-1.9-2.4C82,7.2,82.9,6.2,83.9,6.2"/>
		<path class="st0" d="M57.3,37.3h53.1v-5H57.3V37.3z M104.5,33.4c0.8,0,1.5,0.7,1.5,1.5c0,0.8-0.7,1.5-1.5,1.5
			c-0.8,0-1.5-0.7-1.5-1.5C103,34.1,103.7,33.4,104.5,33.4 M94.3,33.4c0.8,0,1.5,0.7,1.5,1.5c0,0.8-0.7,1.5-1.5,1.5
			c-0.8,0-1.5-0.7-1.5-1.5C92.9,34.1,93.5,33.4,94.3,33.4 M83.9,33.4c0.8,0,1.5,0.7,1.5,1.5c0,0.8-0.7,1.5-1.5,1.5
			c-0.8,0-1.5-0.7-1.5-1.5C82.4,34.1,83.1,33.4,83.9,33.4 M73.5,33.4c0.8,0,1.5,0.7,1.5,1.5c0,0.8-0.7,1.5-1.5,1.5
			c-0.8,0-1.5-0.7-1.5-1.5C72,34.1,72.7,33.4,73.5,33.4 M63.2,33.4c0.8,0,1.5,0.7,1.5,1.5c0,0.8-0.7,1.5-1.5,1.5
			c-0.8,0-1.5-0.7-1.5-1.5C61.8,34.1,62.4,33.4,63.2,33.4"/>
		<rect x="57.3" y="29.8" class="st0" width="53.1" height="1.3"/>
		<path class="st0" d="M62.1,52.7c0-0.9,1.1-1.8,1.1-1.8c-4.2-0.5-11-3.5-11-3.5c-3.8,3.2-9.8,3.5-9.8,3.5c-0.1,0.7,0.9,1.9,0.9,1.9
			V68c0,0-0.3,0.2-1.4,1.5c-0.3,0.4-0.5,0.9-0.5,0.9c8.5,0.9,11.9,5.3,11.9,5.3c3.8-4.2,10.2-5.2,10.2-5.2c-1-0.5-1.4-1.9-1.4-2.2
			V52.7z M55.2,69.5c-4.6-0.9-5.5-1.9-5.5-1.9V51.8c0-0.3,5.5,1.9,5.5,1.9V69.5z"/>
		<path class="st0" d="M104.6,52.7c0-0.9,1.1-1.8,1.1-1.8c-4.2-0.5-11-3.5-11-3.5c-3.8,3.2-9.8,3.5-9.8,3.5
			c-0.1,0.7,0.9,1.9,0.9,1.9V68c0,0-0.3,0.2-1.4,1.5c-0.3,0.4-0.5,0.9-0.5,0.9c8.5,0.9,11.9,5.3,11.9,5.3c3.8-4.2,10.2-5.2,10.2-5.2
			c-1-0.5-1.4-1.9-1.4-2.2V52.7z M97.7,69.5c-4.6-0.9-5.5-1.9-5.5-1.9V51.8c0-0.3,5.5,1.9,5.5,1.9V69.5z"/>
		<path class="st0" d="M153.9,70c-1.7-0.3-2.3-1.7-2.3-2.2V52.3v-1.7c-4.9-1.6-9.7-3.3-9.7-3.3c-4.6,2.7-9.5,3.5-9.5,3.5
			c-0.1,0.7,0.9,1.9,0.9,1.9v16c0,0-0.2,0.3-0.6,0.8c-0.2,0.2-0.5,0.6-0.6,0.8c4.9,0.6,10.3,5.3,10.3,5.3l3.9-4.2l4.5,4.2l5.3-5.3
			C156.1,70.4,155.6,70.3,153.9,70 M144.7,69.5c-2.1-1.6-4.9-2.7-4.9-2.7V51.7c0.2,0.3,4.9,1.9,4.9,1.9V69.5z"/>
		<path class="st0" d="M76.6,70.4c-4.5,2.6-5.7,5.3-5.7,5.3s-1.2-2.7-5.7-5.3l2.1,0V53.8c0-0.9-0.9-2.8-2.9-3l5.8-3.6
			c0,0,3.7,2.2,4.2,3.1c0,0-0.7,0.5,4-2.5l0.8-0.6c0,0,2.9,3.2,5.1,3.7c-0.6,2.1-2.6,4.6-8.4,1.5c0,0-1.4-0.3-1.4,0.6v17.3H76.6z"/>
		<path class="st0" d="M129.6,50.9c-2.3-0.9-6.5-3.6-6.5-3.6l-0.8,0.6c-4.7,3.1-5.8,2.7-5.8,2.7c-0.6-0.9-4.2-3.1-4.2-3.1l-5.6,3.4
			c2.1,0.2,2.9,2.1,2.9,3v16.5l-2.1,0c4.5,2.6,5.7,5.3,5.7,5.3s1.2-2.7,5.7-5.3h-2.1V53.7l3-1.7l2.3,1.7v16.7h-2.1
			c4.5,2.6,5.4,5.3,5.4,5.3s1.2-2.7,5.7-5.3h-2.1l0-17.3C129.1,53,130.2,51.1,129.6,50.9"/>
		<path class="st0" d="M158.2,76.5c0,0,0.7-0.2,0.7-0.8c0-0.4-0.3-0.8-1.1-0.8h-1.3v2.9h0.5v-1.2h0.6c0,0,0.5,0.6,0.8,1.2h0.7
			C159.1,77.8,158.7,76.9,158.2,76.5 M157.8,76.1c-0.3,0-0.7,0-0.7,0v-0.8h0.7c0.2,0,0.5,0.1,0.5,0.4C158.3,76,158,76.1,157.8,76.1"
			/>
		<path class="st0" d="M155,76.3c0,1.5,1.2,2.8,2.8,2.8c1.5,0,2.8-1.2,2.8-2.8c0-1.5-1.2-2.8-2.8-2.8C156.2,73.5,155,74.8,155,76.3
			 M155.5,76.3c0-1.2,1-2.2,2.2-2.2c1.2,0,2.2,1,2.2,2.2c0,1.2-1,2.2-2.2,2.2C156.5,78.5,155.5,77.5,155.5,76.3"/>
	</g>
</g>
</svg>
